<svg width="24" height="24" viewBox="0 0 24 24" fill="none" xmlns="http://www.w3.org/2000/svg">
<g id="bars">
<path id="Vector" d="M1.5 4.50001C1.5 3.67033 2.17031 3.00002 3 3.00002H21C21.8296 3.00002 22.5 3.67033 22.5 4.50001C22.5 5.3297 21.8296 6.00001 21 6.00001H3C2.17031 6.00001 1.5 5.3297 1.5 4.50001ZM1.5 12C1.5 11.1703 2.17031 10.5 3 10.5H21C21.8296 10.5 22.5 11.1703 22.5 12C22.5 12.8297 21.8296 13.5 21 13.5H3C2.17031 13.5 1.5 12.8297 1.5 12ZM22.5 19.5C22.5 20.3297 21.8296 21 21 21H3C2.17031 21 1.5 20.3297 1.5 19.5C1.5 18.6703 2.17031 18 3 18H21C21.8296 18 22.5 18.6703 22.5 19.5Z" fill="white"/>
</g>
</svg>
