<svg width="32" height="33" viewBox="0 0 32 33" fill="none" xmlns="http://www.w3.org/2000/svg">
<path d="M16 0.379883C7.1625 0.379883 0 7.54238 0 16.3799C0 25.2174 7.1625 32.3799 16 32.3799C24.8375 32.3799 32 25.2174 32 16.3799C32 7.54238 24.8375 0.379883 16 0.379883ZM16 29.3799C8.83125 29.3799 3 23.548 3 16.3799C3 9.21176 8.83125 3.37988 16 3.37988C23.1688 3.37988 29 9.21176 29 16.3799C29 23.548 23.1688 29.3799 16 29.3799ZM18.5 21.3799H17.5V15.8799C17.5 15.0549 16.8312 14.3799 16 14.3799H14C13.175 14.3799 12.5 15.0549 12.5 15.8799C12.5 16.7049 13.175 17.3799 14 17.3799H14.5V21.3799H13.5C12.675 21.3799 12 22.0549 12 22.8799C12 23.7049 12.675 24.3799 13.5 24.3799H18.5C19.3281 24.3799 20 23.708 20 22.8799C20 22.0518 19.3312 21.3799 18.5 21.3799ZM16 12.3799C17.1044 12.3799 18 11.4843 18 10.3799C18 9.27551 17.1044 8.37988 16 8.37988C14.8956 8.37988 14 9.27363 14 10.3799C14 11.4861 14.8938 12.3799 16 12.3799Z" fill="white"/>
</svg>
