<svg width="32" height="33" viewBox="0 0 32 33" fill="none" xmlns="http://www.w3.org/2000/svg">
<path d="M16.0001 2.37988C7.16256 2.37988 0.0017578 8.19863 0.0017578 15.3799C0.0017578 18.3568 1.24613 21.083 3.30863 23.2674C2.37863 25.7361 0.441758 27.8224 0.410508 27.8455C-0.00355467 28.283 -0.11293 28.9236 0.121445 29.4705C0.363683 30.0174 0.898808 30.3799 1.50006 30.3799C5.34381 30.3799 8.31881 28.7705 10.1938 27.4893C11.9438 28.0549 13.9563 28.3799 16.0001 28.3799C24.8376 28.3799 31.9438 22.5593 31.9438 15.3799C31.9438 8.20051 24.8376 2.37988 16.0001 2.37988ZM16.0063 25.3799C14.3344 25.3799 12.6863 25.1221 11.1076 24.6224L9.68568 24.1771L8.46693 25.0364C7.57631 25.6689 6.34943 26.3727 4.87318 26.8489C5.33412 26.0914 5.77131 25.2396 6.11568 24.3333L6.77943 22.5833L5.49068 21.2164C4.36381 20.0111 3.00443 18.0174 3.00443 15.3799C3.00443 9.86426 8.83256 5.37988 16.0044 5.37988C23.1763 5.37988 29.0044 9.86426 29.0044 15.3799C29.0044 20.8955 23.1751 25.3799 16.0063 25.3799Z" fill="white"/>
</svg>
