<svg width="21" height="19" viewBox="0 0 21 19" fill="none" xmlns="http://www.w3.org/2000/svg">
<g clip-path="url(#clip0_1107_3198)">
<path d="M17.0625 5.48867V2.46875C17.0625 2.00293 17.4387 1.59336 17.9063 1.59336C18.3738 1.59336 18.75 2.00293 18.75 2.46875V6.91953L20.7012 8.57539C21.0563 8.87773 21.102 9.40859 20.7996 9.76367C20.4973 10.1187 19.9664 10.1645 19.6113 9.86211L18.75 9.13086V15.6875C18.75 17.2414 17.4914 18.5 15.9375 18.5H5.81251C4.25931 18.5 3.00001 17.2414 3.00001 15.6875V9.13086L2.13974 9.86211C1.78431 10.1645 1.25204 10.1187 0.950404 9.76367C0.648904 9.40859 0.692568 8.87773 1.04789 8.57539L10.3301 0.700391C10.643 0.433203 11.107 0.433203 11.4199 0.700391L17.0625 5.48867ZM5.81251 16.8125H15.9375C16.5598 16.8125 17.0625 16.3098 17.0625 15.6875V7.7L10.875 2.45012L4.68751 7.7V15.6875C4.68751 16.3098 5.19025 16.8125 5.81251 16.8125Z" fill="#43576B"/>
</g>
<defs>
<clipPath id="clip0_1107_3198">
<rect width="20.25" height="18" fill="white" transform="translate(0.75 0.5)"/>
</clipPath>
</defs>
</svg>
