<svg width="9" height="14" viewBox="0 0 9 14" fill="none" xmlns="http://www.w3.org/2000/svg">
<path d="M6.95215 2.93262L3.32227 6.5625L6.95215 10.1924C7.03874 10.279 7.08203 10.3815 7.08203 10.5C7.08203 10.6185 7.03874 10.721 6.95215 10.8076L5.81738 11.9424C5.73079 12.029 5.62826 12.0723 5.50977 12.0723C5.39128 12.0723 5.28874 12.029 5.20215 11.9424L0.129883 6.87012C0.0432943 6.78353 0 6.68099 0 6.5625C0 6.44401 0.0432943 6.34147 0.129883 6.25488L5.20215 1.18262C5.28874 1.09603 5.39128 1.05273 5.50977 1.05273C5.62826 1.05273 5.73079 1.09603 5.81738 1.18262L6.95215 2.31738C7.03874 2.40397 7.08203 2.50651 7.08203 2.625C7.08203 2.74349 7.03874 2.84603 6.95215 2.93262Z" fill="#1F2123"/>
</svg>
