<svg width="32" height="33" viewBox="0 0 32 33" fill="none" xmlns="http://www.w3.org/2000/svg">
<path d="M25.8062 6.44863C23.1875 3.82363 19.7 2.37988 15.9937 2.37988C8.34375 2.37988 2.11875 8.60488 2.11875 16.2549C2.11875 18.6986 2.75625 21.0861 3.96875 23.1924L2 30.3799L9.35625 28.4486C11.3813 29.5549 13.6625 30.1361 15.9875 30.1361H15.9937C23.6375 30.1361 30 23.9111 30 16.2611C30 12.5549 28.425 9.07363 25.8062 6.44863ZM15.9937 27.7986C13.9187 27.7986 11.8875 27.2424 10.1187 26.1924L9.7 25.9424L5.3375 27.0861L6.5 22.8299L6.225 22.3924C5.06875 20.5549 4.4625 18.4361 4.4625 16.2549C4.4625 9.89863 9.6375 4.72363 16 4.72363C19.0812 4.72363 21.975 5.92363 24.15 8.10488C26.325 10.2861 27.6625 13.1799 27.6562 16.2611C27.6562 22.6236 22.35 27.7986 15.9937 27.7986ZM22.3188 19.1611C21.975 18.9861 20.2688 18.1486 19.95 18.0361C19.6313 17.9174 19.4 17.8611 19.1688 18.2111C18.9375 18.5611 18.275 19.3361 18.0688 19.5736C17.8688 19.8049 17.6625 19.8361 17.3188 19.6611C15.2812 18.6424 13.9438 17.8424 12.6 15.5361C12.2438 14.9236 12.9562 14.9674 13.6187 13.6424C13.7312 13.4111 13.675 13.2111 13.5875 13.0361C13.5 12.8611 12.8063 11.1549 12.5188 10.4611C12.2375 9.78613 11.95 9.87988 11.7375 9.86738C11.5375 9.85488 11.3062 9.85488 11.075 9.85488C10.8438 9.85488 10.4688 9.94238 10.15 10.2861C9.83125 10.6361 8.9375 11.4736 8.9375 13.1799C8.9375 14.8861 10.1813 16.5361 10.35 16.7674C10.525 16.9986 12.7937 20.4986 16.275 22.0049C18.475 22.9549 19.3375 23.0361 20.4375 22.8736C21.1063 22.7736 22.4875 22.0361 22.775 21.2236C23.0625 20.4111 23.0625 19.7174 22.975 19.5736C22.8938 19.4174 22.6625 19.3299 22.3188 19.1611Z" fill="#1F2123"/>
</svg>
