<svg width="117" height="78" viewBox="0 0 117 78" fill="none" xmlns="http://www.w3.org/2000/svg">
<g clip-path="url(#clip0_1_33)">
<path d="M6.20277 10.9278C6.15096 9.40974 6.16961 7.88963 6.20277 6.36538C6.20277 5.88633 6.5033 5.62918 7.0173 5.63333C8.4681 5.64369 9.9189 5.61881 11.3697 5.64369C12.0039 5.65614 12.1241 5.80338 12.1469 6.47322C12.1697 7.19698 12.1469 7.92489 12.1469 8.64865C12.1469 9.37241 12.1697 10.1003 12.1469 10.8241C12.1179 11.6391 11.9397 11.8133 11.1687 11.8237C9.85879 11.8382 8.54478 11.8403 7.23077 11.8237C6.54268 11.8237 6.2235 11.5893 6.20277 10.9278Z" fill="white"/>
<path d="M14.663 11.0087C14.6423 9.48794 14.6423 7.96715 14.663 6.44635C14.663 5.79932 14.8185 5.65623 15.4755 5.64586C16.891 5.62305 18.3066 5.62512 19.7222 5.64586C20.3605 5.64586 20.4165 5.72466 20.4351 6.38828C20.4558 7.1473 20.4351 7.90839 20.4351 8.66948C20.4351 9.43057 20.4496 10.1917 20.4351 10.9507C20.4206 11.7097 20.2983 11.8217 19.5957 11.832C18.214 11.8555 16.8323 11.8555 15.4506 11.832C14.8122 11.8196 14.6734 11.6724 14.663 11.0087Z" fill="white"/>
<path d="M58.185 13.7441C58.1615 12.1929 58.1615 10.6416 58.185 9.09044C58.185 8.50355 58.3446 8.36045 58.9435 8.35009C60.357 8.3252 61.7698 8.3252 63.1819 8.35009C63.8037 8.35009 63.9322 8.5077 63.955 9.17961C63.9778 9.93655 63.955 10.6956 63.955 11.4608C63.955 12.226 63.9757 12.9768 63.955 13.742C63.9322 14.3828 63.7934 14.5259 63.1384 14.5363C61.7567 14.5584 60.3791 14.5584 59.0057 14.5363C58.3446 14.5218 58.1953 14.3849 58.185 13.7441Z" fill="white"/>
<path d="M66.668 13.9286C66.668 12.2696 66.668 10.6105 66.668 8.95149C66.668 8.51806 66.8752 8.32935 67.3022 8.32935C68.7861 8.32935 70.268 8.32935 71.7499 8.32935C72.2162 8.32935 72.4463 8.5782 72.4463 9.03859C72.4463 9.83286 72.4463 10.6251 72.4463 11.4193C72.4463 12.1783 72.465 12.9374 72.4463 13.7005C72.4256 14.36 72.295 14.5093 71.6546 14.53C70.2038 14.5529 68.753 14.53 67.3022 14.53C66.8897 14.5404 66.668 14.3662 66.668 13.9286Z" fill="white"/>
<path d="M102.53 11.4628C102.53 10.7059 102.511 9.94686 102.53 9.18162C102.55 8.50141 102.669 8.3521 103.299 8.3521C104.712 8.32583 106.125 8.32583 107.537 8.3521C108.138 8.3521 108.289 8.50556 108.298 9.09038C108.32 10.6768 108.298 12.2633 108.298 13.8477C108.298 14.3164 108.037 14.5362 107.581 14.5362C106.13 14.5362 104.679 14.5549 103.241 14.5362C102.677 14.5258 102.546 14.3641 102.526 13.7502C102.511 12.9809 102.53 12.2218 102.53 11.4628Z" fill="white"/>
<path d="M106.874 5.7516C106.886 4.95732 106.874 4.16306 106.874 3.37086C106.874 2.54133 106.874 1.71181 106.874 0.882282C106.874 0.467519 107.06 0.245621 107.496 0.247695C108.977 0.247695 110.461 0.247695 111.943 0.247695C112.403 0.247695 112.652 0.477888 112.654 0.942422C112.654 2.53096 112.673 4.11743 112.654 5.7122C112.654 6.29079 112.493 6.43181 111.883 6.4401C110.432 6.46292 108.982 6.4401 107.531 6.45255C107.04 6.45462 106.866 6.21406 106.874 5.7516Z" fill="white"/>
<path d="M112.658 23.2048C112.658 22.9974 112.658 22.79 112.658 22.5826C112.602 21.7925 112.451 21.6266 111.645 21.6162C110.47 21.5996 109.297 21.6059 108.122 21.6162C107.102 21.6162 107.1 21.6307 107.085 22.6697C107.085 22.8771 107.085 23.0845 107.085 23.2919C107.085 28.5455 107.085 33.7992 107.085 39.0529C107.111 40.0526 107.041 41.0525 106.878 42.0391C106.671 43.1445 106.113 43.9305 104.982 44.2685C104.48 44.3961 103.963 44.4492 103.446 44.4261H74.5355C74.2255 44.4417 73.9149 44.4417 73.6049 44.4261C73.3459 44.3991 72.9832 44.6998 72.8795 44.4365C72.7863 44.2187 73.1821 44.0217 73.3687 43.8309C73.4186 43.7829 73.4719 43.7385 73.5283 43.6982C76.9211 41.0416 78.604 37.4954 78.8548 33.2565C78.9715 31.1464 78.6021 29.0377 77.7749 27.0932C77.1894 25.6469 76.2654 24.3625 75.0806 23.3479C72.8567 21.4814 70.2059 20.6166 67.3789 20.4051C64.9043 20.2226 62.4172 20.2786 59.9902 20.9899C57.6378 21.6784 55.6047 22.8667 54.1124 24.8265C51.8885 27.7485 51.4181 31.1661 51.8429 34.6688C52.2968 38.4722 54.2305 41.529 57.2731 43.8682C57.4078 43.9699 57.6026 44.059 57.5674 44.2519C57.5259 44.48 57.3 44.4095 57.1425 44.4199C56.9352 44.4344 56.728 44.4199 56.5207 44.4199H29.3701C29.0592 44.4199 28.7483 44.4344 28.4374 44.4054C27.0778 44.2851 26.0809 43.4784 25.8757 42.232C25.7195 41.4223 25.6315 40.601 25.6125 39.7766C25.6353 32.5888 25.6249 25.3989 25.6249 18.2089C25.6249 17.9311 25.6249 17.6552 25.6249 17.3794C25.6249 16.9273 25.4177 16.6515 24.9451 16.6494C23.5648 16.6494 22.1824 16.6494 20.8 16.6494C20.713 16.6441 20.6258 16.656 20.5435 16.6843C20.4611 16.7127 20.3851 16.7571 20.3198 16.8149C20.2546 16.8726 20.2014 16.9427 20.1632 17.0211C20.125 17.0994 20.1026 17.1846 20.0974 17.2716C20.0638 17.5106 20.0499 17.752 20.0559 17.9933C20.0559 18.5117 20.0559 19.0302 20.0559 19.5486C20.031 20.3035 19.9875 20.3388 19.1999 20.3782C18.9927 20.3782 18.7854 20.3782 18.5782 20.3782C16.6092 20.3782 14.6403 20.3989 12.6713 20.3782C11.4994 20.3831 10.3323 20.53 9.19564 20.8157C6.19663 21.5146 3.85048 23.128 2.22973 25.7721C0.640067 28.3665 0.227624 31.2657 0.198608 34.2146C0.199252 35.4211 0.338334 36.6235 0.613123 37.7982C1.04716 39.8382 2.03379 41.7194 3.46498 43.2357C4.84739 44.6874 6.62358 45.5377 8.55729 46.081C10.3521 46.587 12.1781 46.4958 14.004 46.5103C14.8982 46.4888 15.7844 46.3358 16.6341 46.0561C17.7246 45.7197 18.7576 45.219 19.6974 44.5713C20.3191 44.1565 20.3191 44.171 20.5844 44.8927C20.688 45.1851 20.7627 45.492 20.8829 45.7762C21.459 47.12 22.3337 48.2108 23.6912 48.8143C24.8277 49.3268 26.0613 49.5878 27.3078 49.5795C38.251 49.4696 49.1963 49.8408 60.1374 49.3929C61.7965 49.3621 63.4244 48.9355 64.8856 48.1486C65.027 48.0546 65.1948 48.0087 65.3643 48.0177C65.5338 48.0266 65.6959 48.09 65.8266 48.1984C66.4539 48.6321 67.1569 48.9445 67.8991 49.1191C69.2117 49.4057 70.5497 49.56 71.893 49.5795C77.4185 49.6003 82.946 49.5795 88.4736 49.5795H104.018C105.052 49.6064 106.086 49.5419 107.108 49.3867C109.311 48.9947 110.924 47.9018 111.792 45.7845C112.486 44.0881 112.621 42.2922 112.644 40.5107C112.694 34.7497 112.658 28.9762 112.658 23.2048ZM20.0248 34.308C19.9191 35.9007 19.5502 37.4394 18.6093 38.7833C17.4631 40.4257 15.8963 41.2718 13.8921 41.3154C13.3055 41.3258 12.719 41.3154 12.1325 41.3154C8.75418 41.3652 6.1614 38.9222 5.90233 35.4423C5.75725 33.4639 5.84222 31.5498 6.44741 29.6481C6.94276 28.0886 7.99562 27.0351 9.37803 26.33C10.4257 25.7898 11.5881 25.5102 12.7667 25.515C14.7999 25.5357 16.8351 25.515 18.8704 25.515C20.0435 25.515 20.0456 25.515 20.0476 26.7365C20.0497 27.9579 20.0476 29.225 20.0476 30.4693C20.0414 31.7551 20.1077 33.0367 20.0248 34.308ZM71.2173 38.8102C69.9005 40.5488 68.1834 41.9432 66.2121 42.8749C65.9087 43.0358 65.5689 43.1153 65.2257 43.1059C64.8825 43.0964 64.5476 42.9983 64.2535 42.821C62.3882 41.8027 60.6534 40.6725 59.3788 38.9222C58.3331 37.4968 57.7032 35.809 57.5591 34.0467C57.4202 32.4581 57.5591 30.88 58.2928 29.4075C58.674 28.6138 59.2128 27.906 59.8763 27.3273C60.5397 26.7487 61.314 26.3113 62.1519 26.0417C64.7944 25.1583 67.3789 25.2247 69.8059 26.7323C71.8785 28.0222 72.836 29.953 72.894 32.3607C72.894 32.6385 72.894 32.9144 72.894 33.3395C73.0373 35.3082 72.44 37.2594 71.2194 38.8102H71.2173Z" fill="white"/>
<path d="M116.801 13.715C116.781 14.3724 116.648 14.5217 116.008 14.5321C114.557 14.5549 113.106 14.5321 111.655 14.5321C111.241 14.5321 111.017 14.3517 111.017 13.91C111.017 12.2509 111.017 10.5919 111.017 8.93281C111.017 8.49731 111.224 8.31067 111.653 8.31067C113.137 8.31067 114.619 8.31067 116.101 8.31067C116.567 8.31067 116.795 8.5616 116.797 9.02199C116.797 9.81418 116.797 10.6085 116.797 11.4007C116.808 12.1949 116.826 12.9581 116.801 13.715Z" fill="white"/>
<path d="M112.658 23.2048C112.658 22.9974 112.658 22.79 112.658 22.5826C112.602 21.7925 112.451 21.6266 111.645 21.6162C110.47 21.5996 109.297 21.6059 108.122 21.6162C107.102 21.6162 107.1 21.6307 107.085 22.6697C107.085 22.8771 107.085 23.0845 107.085 23.2919C107.085 28.5455 107.085 33.7992 107.085 39.0529C107.111 40.0526 107.041 41.0525 106.878 42.0391C106.671 43.1445 106.113 43.9305 104.982 44.2685C104.48 44.3961 103.963 44.4492 103.446 44.4261H74.5355C74.2255 44.4417 73.9149 44.4417 73.6049 44.4261C73.3459 44.3991 72.9832 44.6998 72.8795 44.4365C72.7863 44.2187 73.1821 44.0217 73.3687 43.8309C73.4186 43.7829 73.4719 43.7385 73.5283 43.6982C76.9211 41.0416 78.604 37.4954 78.8548 33.2565C78.9715 31.1464 78.6021 29.0377 77.7749 27.0932C77.1894 25.6469 76.2654 24.3625 75.0806 23.3479C72.8567 21.4814 70.2059 20.6166 67.3789 20.4051C64.9043 20.2226 62.4172 20.2786 59.9902 20.9899C57.6378 21.6784 55.6047 22.8667 54.1124 24.8265C51.8885 27.7485 51.4181 31.1661 51.8429 34.6688C52.2968 38.4722 54.2305 41.529 57.2731 43.8682C57.4078 43.9699 57.6026 44.059 57.5674 44.2519C57.5259 44.48 57.3 44.4095 57.1425 44.4199C56.9352 44.4344 56.728 44.4199 56.5207 44.4199H29.3701C29.0592 44.4199 28.7483 44.4344 28.4374 44.4054C27.0778 44.2851 26.0809 43.4784 25.8757 42.232C25.7195 41.4223 25.6315 40.601 25.6125 39.7766C25.6353 32.5888 25.6249 25.3989 25.6249 18.2089C25.6249 17.9311 25.6249 17.6552 25.6249 17.3794C25.6249 16.9273 25.4177 16.6515 24.9451 16.6494C23.5648 16.6494 22.1824 16.6494 20.8 16.6494C20.713 16.6441 20.6258 16.656 20.5435 16.6843C20.4611 16.7127 20.3851 16.7571 20.3198 16.8149C20.2546 16.8726 20.2014 16.9427 20.1632 17.0211C20.125 17.0994 20.1026 17.1846 20.0974 17.2716C20.0638 17.5106 20.0499 17.752 20.0559 17.9933C20.0559 18.5117 20.0559 19.0302 20.0559 19.5486C20.031 20.3035 19.9875 20.3388 19.1999 20.3782C18.9927 20.3782 18.7854 20.3782 18.5782 20.3782C16.6092 20.3782 14.6403 20.3989 12.6713 20.3782C11.4994 20.3831 10.3323 20.53 9.19564 20.8157C6.19663 21.5146 3.85048 23.128 2.22973 25.7721C0.640067 28.3665 0.227624 31.2657 0.198608 34.2146C0.199252 35.4211 0.338334 36.6235 0.613123 37.7982C1.04716 39.8382 2.03379 41.7194 3.46498 43.2357C4.84739 44.6874 6.62358 45.5377 8.55729 46.081C10.3521 46.587 12.1781 46.4958 14.004 46.5103C14.8982 46.4888 15.7844 46.3358 16.6341 46.0561C17.7246 45.7197 18.7576 45.219 19.6974 44.5713C20.3191 44.1565 20.3191 44.171 20.5844 44.8927C20.688 45.1851 20.7627 45.492 20.8829 45.7762C21.459 47.12 22.3337 48.2108 23.6912 48.8143C24.8277 49.3268 26.0613 49.5878 27.3078 49.5795C38.251 49.4696 49.1963 49.8408 60.1374 49.3929C61.7965 49.3621 63.4244 48.9355 64.8856 48.1486C65.027 48.0546 65.1948 48.0087 65.3643 48.0177C65.5338 48.0266 65.6959 48.09 65.8266 48.1984C66.4539 48.6321 67.1569 48.9445 67.8991 49.1191C69.2117 49.4057 70.5497 49.56 71.893 49.5795C77.4185 49.6003 82.946 49.5795 88.4736 49.5795H104.018C105.052 49.6064 106.086 49.5419 107.108 49.3867C109.311 48.9947 110.924 47.9018 111.792 45.7845C112.486 44.0881 112.621 42.2922 112.644 40.5107C112.694 34.7497 112.658 28.9762 112.658 23.2048ZM20.0248 34.308C19.9191 35.9007 19.5502 37.4394 18.6093 38.7833C17.4631 40.4257 15.8963 41.2718 13.8921 41.3154C13.3055 41.3258 12.719 41.3154 12.1325 41.3154C8.75418 41.3652 6.1614 38.9222 5.90233 35.4423C5.75725 33.4639 5.84222 31.5498 6.44741 29.6481C6.94276 28.0886 7.99562 27.0351 9.37803 26.33C10.4257 25.7898 11.5881 25.5102 12.7667 25.515C14.7999 25.5357 16.8351 25.515 18.8704 25.515C20.0435 25.515 20.0456 25.515 20.0476 26.7365C20.0497 27.9579 20.0476 29.225 20.0476 30.4693C20.0414 31.7551 20.1077 33.0367 20.0248 34.308ZM71.2173 38.8102C69.9005 40.5488 68.1834 41.9432 66.2121 42.8749C65.9087 43.0358 65.5689 43.1153 65.2257 43.1059C64.8825 43.0964 64.5476 42.9983 64.2535 42.821C62.3882 41.8027 60.6534 40.6725 59.3788 38.9222C58.3331 37.4968 57.7032 35.809 57.5591 34.0467C57.4202 32.4581 57.5591 30.88 58.2928 29.4075C58.674 28.6138 59.2128 27.906 59.8763 27.3273C60.5397 26.7487 61.314 26.3113 62.1519 26.0417C64.7944 25.1583 67.3789 25.2247 69.8059 26.7323C71.8785 28.0222 72.836 29.953 72.894 32.3607C72.894 32.6385 72.894 32.9144 72.894 33.3395C73.0373 35.3082 72.44 37.2594 71.2194 38.8102H71.2173Z" fill="white"/>
<path d="M12.1324 10.8365C12.1034 11.6515 11.9251 11.8257 11.1541 11.8361C9.84428 11.8506 8.53027 11.8527 7.21626 11.8361C6.53853 11.8361 6.21935 11.5914 6.19862 10.9298C6.14681 9.41182 6.16546 7.89171 6.19862 6.36746C6.19862 5.88841 6.49915 5.63125 7.01314 5.6354C8.46394 5.64577 9.91474 5.62088 11.3655 5.64577C11.9997 5.65821 12.12 5.80545 12.1428 6.4753C12.1656 7.19906 12.1428 7.92697 12.1428 8.65073C12.1428 9.37449 12.1614 10.1211 12.1324 10.8365Z" fill="white"/>
<path d="M112.65 5.7122C112.65 6.29079 112.488 6.43181 111.879 6.4401C110.428 6.46292 108.977 6.4401 107.527 6.45255C107.031 6.45255 106.857 6.21406 106.866 5.7516C106.878 4.95732 106.866 4.16306 106.866 3.37086C106.866 2.54133 106.866 1.71181 106.866 0.882282C106.866 0.467519 107.052 0.245621 107.487 0.247695C108.969 0.247695 110.453 0.247695 111.935 0.247695C112.395 0.247695 112.644 0.477888 112.646 0.942422C112.66 2.53926 112.675 4.12573 112.65 5.7122Z" fill="white"/>
<path d="M72.4463 13.713C72.4256 14.3724 72.295 14.5218 71.6546 14.5425C70.2038 14.5653 68.753 14.5425 67.3022 14.5425C66.8876 14.5425 66.6597 14.3683 66.6597 13.9307C66.6597 12.2717 66.6597 10.6126 66.6597 8.95357C66.6597 8.52014 66.8669 8.33142 67.2939 8.33142C68.7778 8.33142 70.2597 8.33142 71.7416 8.33142C72.2079 8.33142 72.438 8.58028 72.438 9.04066C72.438 9.83494 72.438 10.6271 72.438 11.4214C72.4525 12.1949 72.4712 12.954 72.4463 13.713Z" fill="white"/>
<path d="M116.801 13.715C116.781 14.3724 116.648 14.5217 116.008 14.5321C114.557 14.5549 113.106 14.5321 111.655 14.5321C111.241 14.5321 111.017 14.3517 111.017 13.91C111.017 12.2509 111.017 10.5919 111.017 8.93281C111.017 8.49731 111.224 8.31067 111.653 8.31067C113.137 8.31067 114.619 8.31067 116.101 8.31067C116.567 8.31067 116.795 8.5616 116.797 9.02199C116.797 9.81418 116.797 10.6085 116.797 11.4007C116.808 12.1949 116.826 12.9581 116.801 13.715Z" fill="white"/>
<path d="M20.4434 8.66947C20.4434 9.43056 20.4579 10.1917 20.4434 10.9507C20.4289 11.7097 20.3066 11.8217 19.604 11.832C18.2223 11.8555 16.8406 11.8555 15.4589 11.832C14.8185 11.8217 14.6796 11.6744 14.6692 11.0025C14.6485 9.48172 14.6485 7.96092 14.6692 6.44012C14.6692 5.79309 14.8247 5.65 15.4817 5.63963C16.8972 5.61682 18.3128 5.61889 19.7284 5.63963C20.3667 5.63963 20.4227 5.71844 20.4413 6.38206C20.4579 7.14729 20.4434 7.90838 20.4434 8.66947Z" fill="white"/>
<path d="M63.955 13.7379C63.9322 14.3787 63.7933 14.5218 63.1384 14.5321C61.7567 14.5542 60.3791 14.5542 59.0057 14.5321C58.3446 14.5218 58.1953 14.3849 58.1767 13.7441C58.1532 12.1929 58.1532 10.6416 58.1767 9.09044C58.1767 8.50355 58.3363 8.36045 58.9352 8.35009C60.3487 8.3252 61.7615 8.3252 63.1736 8.35009C63.7954 8.35009 63.9239 8.5077 63.9467 9.17961C63.9695 9.93655 63.9467 10.6956 63.9467 11.4608C63.9467 12.226 63.9819 12.9788 63.955 13.7379Z" fill="white"/>
<path d="M108.308 13.8539C108.308 14.3226 108.047 14.5424 107.591 14.5424C106.14 14.5424 104.689 14.5611 103.251 14.5424C102.687 14.5321 102.557 14.3703 102.536 13.7565C102.511 12.9975 102.536 12.2384 102.536 11.4753C102.536 10.7121 102.517 9.95931 102.536 9.19408C102.557 8.51386 102.675 8.36455 103.305 8.36455C104.718 8.33828 106.131 8.33828 107.543 8.36455C108.144 8.36455 108.296 8.51801 108.304 9.10283C108.327 10.6748 108.312 12.2612 108.308 13.8539Z" fill="white"/>
<path d="M10.8309 77.7481C16.5541 77.7481 21.1937 73.1058 21.1937 67.3791C21.1937 61.6524 16.5541 57.01 10.8309 57.01C5.10763 57.01 0.468018 61.6524 0.468018 67.3791C0.468018 73.1058 5.10763 77.7481 10.8309 77.7481Z" fill="#0087FE"/>
<path d="M10.8308 60.4857L13.0692 65.0232L18.0724 65.7511L14.4516 69.2828L15.3076 74.2704L10.8308 71.9166L6.35404 74.2704L7.21002 69.2828L3.58923 65.7511L8.59242 65.0232L10.8308 60.4857Z" fill="#FEFEFE"/>
<path d="M34.6655 77.7481C40.3887 77.7481 45.0283 73.1058 45.0283 67.3791C45.0283 61.6524 40.3887 57.01 34.6655 57.01C28.9422 57.01 24.3026 61.6524 24.3026 67.3791C24.3026 73.1058 28.9422 77.7481 34.6655 77.7481Z" fill="#0087FE"/>
<path d="M34.6654 60.4857L36.9038 65.0232L41.907 65.7511L38.2862 69.2828L39.1421 74.2704L34.6654 71.9166L30.1886 74.2704L31.0446 69.2828L27.4238 65.7511L32.427 65.0232L34.6654 60.4857Z" fill="#FEFEFE"/>
<path d="M58.4999 77.7481C64.2232 77.7481 68.8628 73.1058 68.8628 67.3791C68.8628 61.6524 64.2232 57.01 58.4999 57.01C52.7767 57.01 48.1371 61.6524 48.1371 67.3791C48.1371 73.1058 52.7767 77.7481 58.4999 77.7481Z" fill="#0087FE"/>
<path d="M58.5 60.4857L60.7384 65.0232L65.7416 65.7511L62.1208 69.2828L62.9767 74.2704L58.5 71.9166L54.0232 74.2704L54.8792 69.2828L51.2584 65.7511L56.2616 65.0232L58.5 60.4857Z" fill="#FEFEFE"/>
<path d="M82.3345 77.7481C88.0578 77.7481 92.6974 73.1058 92.6974 67.3791C92.6974 61.6524 88.0578 57.01 82.3345 57.01C76.6113 57.01 71.9717 61.6524 71.9717 67.3791C71.9717 73.1058 76.6113 77.7481 82.3345 77.7481Z" fill="#0087FE"/>
<path d="M82.3346 60.4857L84.573 65.0232L89.5761 65.7511L85.9554 69.2828L86.8113 74.2704L82.3346 71.9166L77.8578 74.2704L78.7138 69.2828L75.093 65.7511L80.0962 65.0232L82.3346 60.4857Z" fill="#FEFEFE"/>
<path d="M106.169 77.7481C111.892 77.7481 116.532 73.1058 116.532 67.3791C116.532 61.6524 111.892 57.01 106.169 57.01C100.446 57.01 95.8063 61.6524 95.8063 67.3791C95.8063 73.1058 100.446 77.7481 106.169 77.7481Z" fill="#0087FE"/>
<path d="M106.169 60.4857L108.408 65.0232L113.411 65.7511L109.79 69.2828L110.646 74.2704L106.169 71.9166L101.692 74.2704L102.548 69.2828L98.9276 65.7511L103.931 65.0232L106.169 60.4857Z" fill="#FEFEFE"/>
</g>
<defs>
<clipPath id="clip0_1_33">
<rect width="117" height="78" fill="white"/>
</clipPath>
</defs>
</svg>
